<?xml version="1.0" encoding="UTF-8"?>
<svg xmlns="http://www.w3.org/2000/svg" xmlns:xlink="http://www.w3.org/1999/xlink" width="31.851" height="37.643" viewBox="0 0 31.851 37.643">
  <defs>
    <style>.a{fill:#1682be;}.b{clip-path:url(#a);}</style>
    <clipPath id="a">
      <rect class="a" width="31.851" height="37.643"></rect>
    </clipPath>
  </defs>
  <g class="b">
    <path class="a" d="M29.33,13.917a2.521,2.521,0,1,0-2.418-3.235H21.96L15.926,0,9.891,10.681H4.939a2.523,2.523,0,1,0-1.85,3.17l2.505,4.435-4.3,7.6H9.891l4.225,7.478a2.521,2.521,0,1,0,3.62,0l4.225-7.478h8.593l-4.3-7.6,2.505-4.435a2.517,2.517,0,0,0,.568.065m0-3.616a1.094,1.094,0,1,1-.607,2l-.016-.011q-.032-.022-.061-.046l-.019-.016c-.023-.02-.046-.04-.068-.062l-.011-.012c-.018-.018-.035-.037-.051-.056l-.021-.025c-.015-.018-.029-.037-.042-.056l-.023-.035q-.017-.026-.032-.053l-.02-.037c-.008-.016-.016-.032-.023-.049s-.016-.035-.023-.053-.014-.037-.02-.056-.008-.026-.012-.039-.012-.042-.016-.064,0-.021-.007-.032q-.008-.041-.013-.083c0-.009,0-.019,0-.028,0-.032,0-.064,0-.1h0A1.1,1.1,0,0,1,29.33,10.3m-13.4-7.4,4.4,7.78h-8.79Zm5.2,9.207,3.49,6.177-3.49,6.177h-10.4l-3.49-6.177,3.49-6.177ZM1.427,11.4a1.094,1.094,0,1,1,2.188,0c0,.033,0,.065,0,.1,0,.009,0,.019,0,.028,0,.028-.007.057-.013.085l-.007.03c0,.022-.011.044-.017.065l-.012.038c-.006.02-.014.039-.021.058s-.014.034-.022.051-.016.034-.024.05l-.019.036c-.011.019-.022.037-.034.055l-.021.032q-.021.03-.043.058l-.02.024c-.017.02-.034.039-.052.057l-.01.01c-.022.022-.045.042-.068.062l-.018.015q-.03.025-.063.047l-.015.01a1.093,1.093,0,0,1-1.7-.91m2.9,1.754.03-.033.047-.052.042-.048c.02-.024.039-.048.058-.072l.026-.033q.043-.057.083-.116l0,0c.026-.039.051-.08.075-.12l.008-.014q.035-.06.066-.121l0-.006a2.511,2.511,0,0,0,.167-.421H9.085l-2.67,4.727ZM3.744,24.464l2.67-4.727,2.67,4.727ZM15.925,36.216a1.094,1.094,0,0,1-.526-2.053l.015-.008c.026-.014.053-.027.08-.039l.008,0q.047-.02.1-.035l0,0a1.085,1.085,0,0,1,.2-.042l.017,0c.034,0,.068-.005.1-.005s.069,0,.1.005l.017,0a1.086,1.086,0,0,1,.2.041l.006,0c.032.01.064.022.1.035l.01,0c.027.011.053.024.078.038l.017.009a1.094,1.094,0,0,1-.527,2.053m.568-3.551-.013,0-.11-.022-.028,0-.109-.016-.03,0-.109-.009-.03,0c-.046,0-.092,0-.138,0s-.093,0-.138,0l-.031,0-.109.009-.03,0-.109.016-.028.005-.11.022-.013,0L11.53,25.891h8.79Zm11.613-8.2H22.766l2.67-4.727Zm-2.67-7.628-2.67-4.727h4.145a2.5,2.5,0,0,0,.168.421l0,0q.032.063.067.123l.007.012c.024.041.05.082.076.122v0q.04.06.083.117l.025.032c.019.025.039.049.059.073l.042.048.047.051.031.034Z"></path>
  </g>
</svg>
